<svg id="canvas" height="auto" xmlns="http://www.w3.org/2000/svg" version="1.1" xmlns:xlink="http://www.w3.org/1999/xlink" xmlns:svgjs="http://svgjs.dev/svgjs" viewBox="0 0 900 512" width="auto" style="width: auto; height: auto;"><rect width="900" height="512" fill="#e1f4f3"/><svg width="88.83673904558442" height="88.83673904558442" stroke-width="2" stroke="#333333" fill="none" x="711.2062320419024" y="376.87535377858006"><line x1="0" y1="22.209184761396106" x2="44.41836952279221" y2="22.210184761396107"/><line x1="22.209184761396106" y1="0" x2="22.210184761396107" y2="44.41836952279221"/></svg><svg width="85.728287480785" height="85.728287480785" stroke-width="2" stroke="#333333" fill="none" x="67.68973927706992" y="498.5813079452254"><line x1="0" y1="21.43207187019625" x2="42.8641437403925" y2="21.43307187019625"/><line x1="21.43207187019625" y1="0" x2="21.43307187019625" y2="42.8641437403925"/></svg><polyline points="787.6245727539062,347.1710068905449 815.1977001862971,319.59787945815407 842.7708276186879,347.1710068905449 870.3439550510788,319.59787945815407 897.9170824834696,347.1710068905449 925.4902099158604,319.59787945815407 953.0633373482513,347.1710068905449" stroke-width="2" stroke="#333333" fill="none"/><svg width="111.3331212906226" height="111.3331212906226" stroke-width="2" stroke="#333333" fill="none" x="507.7833734332586" y="339.2966827973244"><line x1="0" y1="27.83328032265565" x2="55.6665606453113" y2="27.83428032265565"/><line x1="27.83328032265565" y1="0" x2="27.83428032265565" y2="55.6665606453113"/></svg><polyline points="39.4204216003418,403.3629092578661 66.209733509734,376.57359734847387 92.99904541912618,403.3629092578661 119.78835732851836,376.57359734847387 146.57766923791053,403.3629092578661 173.36698114730274,376.57359734847387 200.15629305669495,403.3629092578661" stroke-width="2" stroke="#333333" fill="none"/><circle r="15.095506990795712" cx="15.095506990795712" cy="15.095506990795712" transform="matrix(1,0,0,1,552.7246054138371,46.717217678692755)" stroke-width="2" stroke="#333333" fill="none"/><polyline points="364.45867919921875,43.577393919230275 386.55356145353824,21.482511664910795 408.6484437078577,43.577393919230275 430.74332596217715,21.482511664910795 452.83820821649664,43.577393919230275 474.9330904708161,21.482511664910795 497.02797272513556,43.577393919230275" stroke-width="2" stroke="#333333" fill="none"/><svg width="98.78323972889366" height="98.78323972889366" stroke-width="2" stroke="#333333" fill="none" x="847.6557539195345" y="172.89942696308583"><line x1="0" y1="24.695809932223415" x2="49.39161986444683" y2="24.696809932223417"/><line x1="24.695809932223415" y1="0" x2="24.696809932223417" y2="49.39161986444683"/></svg><circle r="23.93841554270094" cx="23.93841554270094" cy="23.93841554270094" transform="matrix(1,0,0,1,43.58684965990995,281.87039787684853)" stroke-width="2" stroke="#333333" fill="none"/><circle r="19.676431239119985" cx="19.676431239119985" cy="19.676431239119985" transform="matrix(1,0,0,1,555.6336000953283,253.5003686378912)" stroke-width="2" stroke="#333333" fill="none"/><circle r="23.224782128702667" cx="23.224782128702667" cy="23.224782128702667" transform="matrix(1,0,0,1,801.6482105063028,77.10430775159412)" stroke-width="2" stroke="#333333" fill="none"/><svg width="109.77046898897918" height="109.77046898897918" stroke-width="2" stroke="#333333" fill="none" x="151.14932748676588" y="468.56923111337665"><line x1="0" y1="27.442617247244794" x2="54.88523449448959" y2="27.443617247244795"/><line x1="27.442617247244794" y1="0" x2="27.443617247244795" y2="54.88523449448959"/></svg><svg width="82.42020367968831" height="82.42020367968831" stroke-width="2" stroke="#333333" fill="none" x="829.9457750242334" y="352.9363679072319"><line x1="0" y1="20.60505091992208" x2="41.21010183984416" y2="20.60605091992208"/><line x1="20.60505091992208" y1="0" x2="20.60605091992208" y2="41.21010183984416"/></svg><svg width="103.51976584305328" height="103.51976584305328" stroke-width="2" stroke="#333333" fill="none" x="88.94020783726802" y="348.21010030533915"><line x1="0" y1="25.87994146076332" x2="51.75988292152664" y2="25.88094146076332"/><line x1="25.87994146076332" y1="0" x2="25.88094146076332" y2="51.75988292152664"/></svg><svg width="60.9881282604164" height="60.9881282604164" stroke-width="2" stroke="#333333" fill="none" x="113.70479854583172" y="82.37860682171483"><line x1="0" y1="15.2470320651041" x2="30.4940641302082" y2="15.2480320651041"/><line x1="15.2470320651041" y1="0" x2="15.2480320651041" y2="30.4940641302082"/></svg><svg width="107.48177248679238" height="107.48177248679238" stroke-width="2" stroke="#333333" fill="none" x="440.22512802079" y="198.63536123041442"><line x1="0" y1="26.870443121698095" x2="53.74088624339619" y2="26.871443121698096"/><line x1="26.870443121698095" y1="0" x2="26.871443121698096" y2="53.74088624339619"/></svg><polyline points="894.0469360351562,436.9671755289396 927.7597442567153,403.25436730738045 961.4725524782745,436.9671755289396 995.1853606998336,403.25436730738045 1028.8981689213927,436.9671755289396 1062.610977142952,403.25436730738045 1096.323785364511,436.9671755289396" stroke-width="2" stroke="#333333" fill="none"/><polyline points="486.6970520019531,484.42531856357556 518.5346333903785,452.5877371751501 550.3722147788042,484.42531856357556 582.2097961672296,452.5877371751501 614.047377555655,484.42531856357556 645.8849589440806,452.5877371751501 677.722540332506,484.42531856357556" stroke-width="2" stroke="#333333" fill="none"/><polyline points="858.9688720703125,186.56727513010367 902.0084019701515,143.52774523026474 945.0479318699904,186.56727513010367 988.0874617698294,143.52774523026474 1031.1269916696683,186.56727513010367 1074.166521569507,143.52774523026474 1117.2060514693462,186.56727513010367" stroke-width="2" stroke="#333333" fill="none"/><svg width="109.07094195544434" height="109.07094195544434" stroke-width="2" stroke="#333333" fill="none" x="264.0209641892126" y="9.967796547995265"><line x1="0" y1="27.267735488861085" x2="54.53547097772217" y2="27.268735488861086"/><line x1="27.267735488861085" y1="0" x2="27.268735488861086" y2="54.53547097772217"/></svg></svg>