<svg id="visual" viewBox="0 0 960 540" width="960" height="540" xmlns="http://www.w3.org/2000/svg" xmlns:xlink="http://www.w3.org/1999/xlink" version="1.1"><rect x="0" y="0" width="960" height="540" fill="#706C61"></rect><path d="M0 377L20 374C40 371 80 365 120 370.3C160 375.7 200 392.3 240 398.5C280 404.7 320 400.3 360 392.8C400 385.3 440 374.7 480 372.2C520 369.7 560 375.3 600 388.3C640 401.3 680 421.7 720 418C760 414.3 800 386.7 840 377C880 367.3 920 375.7 940 379.8L960 384L960 541L940 541C920 541 880 541 840 541C800 541 760 541 720 541C680 541 640 541 600 541C560 541 520 541 480 541C440 541 400 541 360 541C320 541 280 541 240 541C200 541 160 541 120 541C80 541 40 541 20 541L0 541Z" fill="#FFFFFF" stroke-linecap="round" stroke-linejoin="miter"></path></svg>